<svg width="287" height="287" xmlns="http://www.w3.org/2000/svg">

 <g label="Layer 1" id="imagebot_3">
  <ellipse transform="translate(-6.54297, -6.55078) matrix(1, 0, 0, 1, -231.54, -375.82)" label="Layer 1" fill="#007f3f" ry="143.45013" rx="143.45773" cy="525.82001" cx="381.54001" id="imagebot_7"/>
  <g fill="#ffffff" transform="translate(-6.54297, -6.55078) matrix(3.81893, 0, 0, 3.81893, -1629.68, -1973.28)" label="Calque 1" id="imagebot_4">
   <g fill="#ffffff" transform="translate(-560.19,271.89)" id="imagebot_5">
    <path clip-rule="nonzero" fill="#ffffff" fill-rule="nonzero" stroke-width="2.952" stroke-linecap="round" stroke-linejoin="round" stroke-miterlimit="4" stroke-dashoffset="0" d="M1005.11908,267.46484C1004.08978,267.46477 1003.24598,268.30607 1003.24608,269.33594L1003.24608,298.85547C1003.24568,299.88555 1004.08848,300.73056 1005.11908,300.73047L1047.29098,300.73047C1048.32168,300.73056 1049.16458,299.88565 1049.16408,298.85547L1049.16408,269.33594C1049.16408,268.30609 1048.32028,267.46477 1047.29098,267.46484L1005.11908,267.46484zM1010.11128,271.94922L1042.28708,271.94922L1026.20118,286.00391L1010.11128,271.94922zM1045.41798,274.1875L1045.41798,294.95117L1033.65428,284.46484L1045.41798,274.1875zM1006.99218,274.1992L1018.80468,284.52146L1006.99218,295.05271L1006.99218,274.1992zM1030.81248,286.94725L1042.00388,296.92576L1010.52148,296.92576L1021.64838,287.00584L1024.96478,289.90428C1025.66808,290.51827 1026.72628,290.51823 1027.42968,289.90428L1030.81248,286.94725z" id="imagebot_6"/>
   </g>
  </g>
  <title>Layer 1</title>
 </g>
 <metadata id="imagebot_2">image/svg+xmlRygle2015-03-29RygleiconmailsnailcommunicationcommunicateaddressenvelopePublic Domain</metadata>
</svg>